<?xml version="1.0" encoding="UTF-8" standalone="no"?>
<!-- Generator: Adobe Illustrator 19.0.0, SVG Export Plug-In . SVG Version: 6.00 Build 0)  -->

<svg
   version="1.1"
   id="Layer_1"
   x="0px"
   y="0px"
   viewBox="0 0 512 512"
   style="enable-background:new 0 0 512 512;"
   xml:space="preserve"
   sodipodi:docname="leaf2.svg"
   xmlns:inkscape="http://www.inkscape.org/namespaces/inkscape"
   xmlns:sodipodi="http://sodipodi.sourceforge.net/DTD/sodipodi-0.dtd"
   xmlns="http://www.w3.org/2000/svg"
   xmlns:svg="http://www.w3.org/2000/svg"><defs
   id="defs41" /><sodipodi:namedview
   id="namedview39"
   pagecolor="#ffffff"
   bordercolor="#000000"
   borderopacity="0.25"
   inkscape:showpageshadow="2"
   inkscape:pageopacity="0.0"
   inkscape:pagecheckerboard="0"
   inkscape:deskcolor="#d1d1d1"
   showgrid="false" />
<path
   style="fill:#60dd4d"
   d="M 421.63228,219.48076 C 432.46091,154.00268 435.77512,96.93138 435.91159,94.533581 l 1.10804,-19.553624 -19.55292,1.108743 c -2.3978,0.136472 -59.46909,3.452096 -124.94718,14.279315 -90.34138,14.939755 -150.14423,36.510755 -177.74755,64.114075 -66.925539,66.92554 -66.925539,175.8214 0,242.74693 66.92553,66.92554 175.82139,66.92554 242.74693,0 27.60262,-27.60403 49.17362,-87.40688 64.11337,-177.74826 z"
   id="path2" />
<path
   style="fill:#00c47a"
   d="m 114.77127,397.22832 c 66.92554,66.92553 175.82139,66.92553 242.74693,0 27.60333,-27.60333 49.17503,-87.40547 64.11408,-177.74756 10.82863,-65.47808 14.14284,-122.54938 14.27931,-124.947179 l 1.10804,-19.553624"
   id="path4" />
<polygon
   style="fill:#00925b"
   points="313.575,289.823 273.484,329.913 273.484,274.46 314.988,232.956 290.263,208.229 256,242.49 221.738,208.229 197.012,232.956 238.516,274.46 238.516,329.913 198.425,289.823 173.7,314.55 238.516,379.367 238.516,512 273.484,512 273.484,379.367 338.3,314.55 "
   id="polygon6"
   transform="rotate(45,256.001,256)" />
<g
   id="g8">
</g>
<g
   id="g10">
</g>
<g
   id="g12">
</g>
<g
   id="g14">
</g>
<g
   id="g16">
</g>
<g
   id="g18">
</g>
<g
   id="g20">
</g>
<g
   id="g22">
</g>
<g
   id="g24">
</g>
<g
   id="g26">
</g>
<g
   id="g28">
</g>
<g
   id="g30">
</g>
<g
   id="g32">
</g>
<g
   id="g34">
</g>
<g
   id="g36">
</g>
</svg>
